<svg width="358" height="211" viewBox="0 0 358 211" fill="none" xmlns="http://www.w3.org/2000/svg"><path d="M175.355 108.677l-21.995 1.131-4.087 10.276-15.009.772 22.96-52.988 14.49-.745 23.035 50.622-15.307.788-4.087-9.856zm-4.31-10.584l-6.687-16.234-6.688 16.922 13.375-.688zm44.668 19.61c-4.211.217-8.298-.091-12.26-.923-3.963-.833-7.184-2.049-9.66-3.648l4.83-11.054c2.328 1.41 5.028 2.504 8.099 3.284 3.071.78 6.093 1.093 9.066.94 5.647-.291 8.47-1.842 8.47-4.654 0-1.481-.817-2.524-2.452-3.13-1.585-.66-4.161-1.291-7.728-1.898-3.913-.637-7.183-1.357-9.808-2.16a15.7 15.7 0 0 1-6.762-4.315c-1.882-2.025-2.823-4.837-2.823-8.44 0-3.158.867-6.04 2.6-8.645 1.734-2.655 4.31-4.81 7.728-6.466 3.468-1.658 7.704-2.616 12.706-2.874a42.907 42.907 0 0 1 10.106.665c3.319.57 6.242 1.529 8.768 2.88l-4.532 11.112c-4.955-2.41-9.759-3.495-14.416-3.255-2.922.15-5.053.704-6.39 1.66-1.338.908-2.006 2.052-2.006 3.434 0 1.382.793 2.378 2.377 2.986 1.585.61 4.137 1.194 7.654 1.753 3.963.635 7.232 1.38 9.808 2.234a15.115 15.115 0 0 1 6.762 4.241c1.932 1.973 2.898 4.76 2.898 8.362 0 3.109-.867 5.966-2.601 8.571-1.733 2.606-4.334 4.762-7.802 6.47-3.468 1.659-7.678 2.616-12.632 2.87zm54.576-2.806c-5.499.282-10.453-.623-14.862-2.715-4.359-2.094-7.802-5.125-10.328-9.09-2.478-3.967-3.716-8.518-3.716-13.649 0-5.13 1.238-9.809 3.716-14.03 2.526-4.226 5.969-7.61 10.328-10.153 4.409-2.546 9.363-3.96 14.862-4.243 5.498-.283 10.427.623 14.787 2.718 4.408 2.092 7.851 5.122 10.328 9.09 2.527 3.965 3.79 8.514 3.79 13.645s-1.263 9.81-3.79 14.035c-2.477 4.222-5.92 7.607-10.328 10.153-4.36 2.542-9.289 3.956-14.787 4.239zm0-12.138c2.625-.135 5.003-.874 7.133-2.217 2.129-1.344 3.814-3.157 5.053-5.441 1.238-2.334 1.857-4.956 1.857-7.867 0-2.91-.619-5.445-1.857-7.601-1.239-2.207-2.924-3.87-5.053-4.995-2.13-1.125-4.508-1.619-7.133-1.484-2.627.136-5.004.874-7.134 2.218-2.13 1.343-3.815 3.18-5.053 5.514-1.238 2.284-1.857 4.882-1.857 7.793 0 2.91.619 5.47 1.857 7.675 1.238 2.157 2.923 3.797 5.053 4.921 2.13 1.125 4.507 1.619 7.134 1.484zm84.612-45.058v51.808l-12.112.623-22.96-26.425v27.605l-14.416.742V60.246l12.112-.623 22.961 26.426V58.442l14.415-.74zM133.086.511L0 7.356v132.556l133.086-6.844V.511z" fill="#DD4B39"/><path d="M55.665 111.132l-8.025.413v13.766l-14.712.757V74.26l23.778-1.223c4.705-.242 8.792.338 12.26 1.738 3.468 1.352 6.143 3.434 8.025 6.248 1.882 2.766 2.824 6.096 2.824 9.995 0 3.75-.892 7.076-2.675 9.981-1.734 2.851-4.236 5.152-7.505 6.899l11.22 15.705-15.753.81-9.437-13.281zm9.289-19.35c0-2.418-.768-4.253-2.304-5.506-1.536-1.254-3.814-1.802-6.836-1.647l-8.174.42v15.172l8.174-.42c3.022-.155 5.3-.914 6.836-2.276 1.536-1.411 2.304-3.325 2.304-5.743zm61.023 18.177v11.323l-41.76 2.148V71.622l40.794-2.098v11.324l-26.23 1.35v8.732l23.109-1.188v10.953l-23.11 1.189v9.473l27.197-1.398zM59.97 199.724c-5.449.28-10.353-.602-14.713-2.648-4.31-2.097-7.703-5.13-10.18-9.098-2.476-3.967-3.715-8.542-3.715-13.723 0-5.18 1.239-9.883 3.715-14.105 2.477-4.222 5.87-7.579 10.18-10.071 4.36-2.543 9.264-3.955 14.713-4.235 4.755-.244 9.04.374 12.855 1.855 3.814 1.482 6.984 3.736 9.51 6.764l-9.362 8.919c-3.368-3.873-7.455-5.685-12.26-5.438-2.824.145-5.35.891-7.58 2.24-2.179 1.346-3.888 3.184-5.127 5.518-1.188 2.282-1.783 4.878-1.783 7.789 0 2.911.595 5.471 1.783 7.679 1.24 2.157 2.948 3.796 5.128 4.918 2.229 1.119 4.755 1.605 7.579 1.46 4.805-.247 8.892-2.48 12.26-6.699l9.363 7.955c-2.526 3.288-5.697 5.868-9.511 7.742-3.814 1.875-8.1 2.933-12.855 3.178zm52.581-2.704c-5.498.282-10.452-.623-14.86-2.715-4.36-2.094-7.802-5.125-10.329-9.09-2.477-3.967-3.715-8.518-3.715-13.649 0-5.131 1.238-9.808 3.715-14.031 2.527-4.225 5.97-7.609 10.329-10.152 4.408-2.546 9.362-3.96 14.86-4.243 5.499-.283 10.428.623 14.787 2.718 4.409 2.092 7.852 5.123 10.328 9.09 2.527 3.965 3.79 8.514 3.79 13.645s-1.263 9.81-3.79 14.035c-2.476 4.222-5.919 7.607-10.328 10.153-4.359 2.543-9.288 3.956-14.787 4.239zm0-12.138c2.626-.135 5.004-.874 7.133-2.217 2.131-1.344 3.815-3.157 5.053-5.441 1.239-2.334 1.858-4.956 1.858-7.866 0-2.911-.619-5.445-1.858-7.602-1.238-2.206-2.922-3.871-5.053-4.995-2.129-1.124-4.507-1.618-7.133-1.483-2.625.135-5.003.873-7.132 2.217-2.131 1.343-3.816 3.181-5.053 5.514-1.239 2.284-1.858 4.882-1.858 7.793 0 2.911.619 5.469 1.858 7.676 1.237 2.156 2.922 3.796 5.053 4.921 2.129 1.124 4.507 1.618 7.132 1.483zm84.613-45.058v51.808l-12.111.623-22.961-26.425v27.606l-14.415.741V142.37l12.111-.623 22.961 26.425v-27.606l14.415-.742zm23.605 10.11v11.398l22.96-1.181v11.324l-22.96 1.18v17.763l-14.713.757v-51.808l40.794-2.098v11.324l-26.081 1.341z" fill="#F6F4F1"/><path d="M275.19 144.767c1.388.57 2.453 1.478 3.196 2.722.793 1.193 1.189 2.627 1.189 4.305 0 2.467-.793 4.506-2.378 6.118-1.585 1.611-3.617 2.48-6.093 2.607-2.477.128-4.509-.532-6.094-1.981-1.584-1.448-2.377-3.406-2.377-5.872 0-1.135.148-2.278.446-3.428.297-1.149.966-2.862 2.006-5.136l4.755-11.124 8.843-.455-3.493 12.244zm32.207-10.612v51.808l-14.712.756v-40.484l-9.66.497v-11.323l24.372-1.254zm25.359-2.34c7.48-.385 13.375 1.508 17.685 5.677 4.309 4.169 6.464 10.375 6.464 18.614 0 5.921-1.164 11.088-3.492 15.5-2.279 4.36-5.523 7.759-9.734 10.196-4.161 2.435-8.991 3.793-14.49 4.076-2.922.15-5.721-.051-8.397-.604-2.675-.504-4.954-1.3-6.836-2.387l5.35-10.785c2.527 1.647 5.722 2.37 9.586 2.172 3.715-.191 6.712-1.357 8.991-3.497 2.328-2.192 3.691-5.247 4.087-9.166-2.972 2.67-6.861 4.128-11.666 4.375-3.27.168-6.266-.344-8.991-1.536-2.725-1.242-4.905-3.054-6.539-5.437-1.585-2.434-2.378-5.256-2.378-8.463 0-3.502.892-6.632 2.675-9.388 1.833-2.809 4.285-5.007 7.356-6.596 3.121-1.64 6.564-2.558 10.329-2.751zm1.04 23.482c2.131-.11 3.864-.791 5.202-2.044 1.337-1.303 2.006-2.94 2.006-4.914 0-1.924-.669-3.444-2.006-4.559-1.288-1.168-3.047-1.694-5.276-1.579-2.081.107-3.79.787-5.127 2.04-1.288 1.25-1.932 2.887-1.932 4.91 0 1.974.644 3.519 1.932 4.637 1.337 1.115 3.071 1.618 5.201 1.509z" fill="#F6F4F1" fill-opacity=".5"/></svg>