<svg height="400" viewBox="0 0 400 400" width="400" xmlns="http://www.w3.org/2000/svg"><g fill="none"><path d="m400 0h-400v400h400z" fill="#dd4b39" transform=""/><path d="m65.7 137.7c0-10 2.2-18.2 6.6-24.6 4.4-6.6 10.8-13.8 19.2-21.6 5.8-5.4 10.1-9.9 12.9-13.5 2.8-3.8 4.2-7.8 4.2-12 0-5.8-2.5-10.4-7.5-13.8-4.8-3.6-11.1-5.4-18.9-5.4-8 0-15.3 1.9-21.9 5.7-6.4 3.8-11.6 9.1-15.6 15.9l-44.7-24c8.2-14 19.8-24.9 34.8-32.7s33.1-11.7 54.3-11.7c23.8 0 42.9 5 57.3 15 14.6 9.8 21.9 23.6 21.9 41.4 0 8.2-1.4 15.5-4.2 21.9-2.8 6.2-6.2 11.5-10.2 15.9-3.8 4.2-8.8 9-15 14.4-6.8 5.8-11.8 10.8-15 15-3.2 4-4.8 8.7-4.8 14.1zm26.7 79.2c-9.8 0-17.9-3-24.3-9-6.4-6.2-9.6-13.7-9.6-22.5 0-9 3.1-16.4 9.3-22.2 6.4-5.8 14.6-8.7 24.6-8.7s18.2 2.9 24.6 8.7 9.6 13.2 9.6 22.2c0 8.8-3.2 16.3-9.6 22.5-6.4 6-14.6 9-24.6 9z" fill="#fff" transform="translate(187.9 155.8)"/></g></svg>