<svg enable-background="new 0 0 300 300" viewBox="0 0 300 300" xmlns="http://www.w3.org/2000/svg"><path d="m149.7 14.2c-72.9 0-131.9 59.1-131.9 131.9s59.1 131.9 131.9 131.9 131.9-59.1 131.9-131.9c0-72.9-59.1-131.9-131.9-131.9zm68.7 108.6c4.5 0 8.2 3.7 8.2 8.2s-3.7 8.2-8.2 8.2-8.2-3.7-8.2-8.2 3.7-8.2 8.2-8.2zm-83.4 34.6h-3.6v26.2h-5.9l-4.3-9.1c-4.8 6.4-13.4 10.7-22.7 10.7-18.8 0-35.8-14.2-35.8-39.3 0-25 19.7-39.3 38.7-39.3 20.1 0 30.5 13.5 30.5 24.7 0 4.3-3.5 7.8-7.8 7.8s-7.8-3.5-7.8-7.8c0-4.1 3.1-7.4 7.1-7.8-1.6-6.5-11.2-11.7-21.2-11.7-16 0-24.7 13.4-24.7 34 0 20 9.1 33.6 21.3 33.6 10.1 0 19.4-6 19.4-14.9v-7.2h-9.4v-5.2h26.2zm46.7 28c-12.4 0-12.4-7.3-20.5-7.3-7.1 0-12.9 5.6-12.9 5.6h-7.7c1.8-14.8 13.3-19.1 29.2-31.5 6.8-5.3 13.2-12.4 13.2-23 0-5.7-2.4-17.4-15.2-17.4-8.9 0-15.9 4.8-17 10.9 4.3.2 7.8 3.8 7.8 8.2 0 4.5-3.7 8.2-8.2 8.2s-8.2-3.7-8.2-8.2c0-10.3 9.4-24.3 26.3-24.3 18.7 0 28.1 12.2 28.1 23 0 28.1-38.9 33.4-43.2 44.9 0 0 5.7-2.8 10.8-2.8 7.2 0 9.6 4.5 16.3 4.5 5.6 0 10.3-2.6 10.3-8.4h9.5c0 7.1-4 17.6-18.6 17.6zm52-1.7h-26.1v-5.2h7.5v-28h-7.5v-5l18.6.1v5 28h7.5z" fill="#e03f2d"/></svg>