<svg xmlns="http://www.w3.org/2000/svg" viewBox="0 0 138.19 19.99">
  <defs>
    <style>
      .cls-1 {
        fill: #97cfc2;
      }

      .cls-2 {
        fill: #3c73b9;
      }

      .cls-3 {
        fill: #3c89c9;
      }

      .cls-4 {
        fill: #2f9ed9;
      }

      .cls-5 {
        fill: #0caee0;
      }

      .cls-6 {
        fill: #1ab8d6;
      }

      .cls-7 {
        fill: #39bac7;
      }

      .cls-8 {
        fill: #49baba;
      }

      .cls-9 {
        fill: #59bcb0;
      }

      .cls-10 {
        fill: #62bda3;
      }

      .cls-11 {
        fill: #63bc9e;
      }
    </style>
  </defs>
  <title>Asset 1</title>
  <g id="Layer_2" data-name="Layer 2">
    <g id="Layer_1-2" data-name="Layer 1">
      <g id="Page-1">
        <g id="imandra.ai-desktop">
          <g id="Group-2">
            <path id="Fill-1" class="cls-1" d="M131.69,15.58V17.4h2.74v.33h-2.74v1.84h3v.34h-3.31V15.24h3.22v.33ZM128.11,19l.24.23a2.4,2.4,0,0,1-1.7.7,2.27,2.27,0,0,1-2.41-2.36,2.29,2.29,0,0,1,2.41-2.42,2.42,2.42,0,0,1,1.7.7l-.25.21a2,2,0,0,0-1.45-.59,2,2,0,0,0-2.06,2.08,2,2,0,0,0,2.06,2.05,2.11,2.11,0,0,0,1.46-.6Zm-7.36.87h.35V15.24h-.35Zm-3.37-4.67h.38l-1.92,4.69h-.39l-1.92-4.69h.39l1.73,4.27Zm-9.82.33V17.8h1.66a1.05,1.05,0,0,0,1.18-1.11,1.08,1.08,0,0,0-1-1.12h-1.8Zm1.71,2.55,1.65,1.79h-.46l-1.62-1.77h-1.27v1.77h-.36V15.24h2.05a1.44,1.44,0,0,1,1.53,1.45,1.38,1.38,0,0,1-1.51,1.43Zm-8.18-2.54v1.81h2.74v.34h-2.74v1.83h3v.35h-3.31V15.24H104v.33ZM97.48,16l-.3.17a1.48,1.48,0,0,0-1.41-.63c-.53,0-1.42.2-1.42.95,0,.59.64.73,1.43.88s1.84.33,1.84,1.33S96.55,20,95.77,20a2.11,2.11,0,0,1-1.92-1l.32-.17a1.83,1.83,0,0,0,1.6.85c.57,0,1.49-.17,1.49-1s-.77-.86-1.54-1S94,17.31,94,16.45s1-1.3,1.78-1.3A1.88,1.88,0,0,1,97.48,16Zm-14,2.47H86l-1.25-2.84Zm3.55,1.48h-.39l-.51-1.15H83.38l-.5,1.15h-.4l2.1-4.67H85ZM75.51,16l-.29.17a1.5,1.5,0,0,0-1.42-.63c-.53,0-1.41.2-1.41.95,0,.59.64.73,1.42.88s1.84.33,1.84,1.33S74.58,20,73.8,20a2.09,2.09,0,0,1-1.91-1l.32-.17a1.81,1.81,0,0,0,1.59.85c.58,0,1.49-.17,1.49-1s-.77-.86-1.54-1S72,17.31,72,16.45s1-1.3,1.77-1.3A1.87,1.87,0,0,1,75.51,16Zm-9.77,2.47h2.51L67,15.59Zm3.56,1.48h-.39l-.51-1.14H65.61l-.5,1.14h-.39l2.1-4.67h.39Zm-11.69-4-.2.23a2.18,2.18,0,0,0-1.51-.6,2,2,0,0,0-2.06,2.08,2,2,0,0,0,2.06,2.06,2.14,2.14,0,0,0,1.43-.54V17.78H55.7v-.31h2v1.75A2.45,2.45,0,0,1,55.9,20a2.27,2.27,0,0,1-2.41-2.38,2.29,2.29,0,0,1,2.41-2.42,2.42,2.42,0,0,1,1.71.7Zm-10.93-.63h.15L50,19.1V15.24h.36v4.67h-.14L47,16.05v3.86h-.36Zm-3.75,4.67h.35V15.24h-.35Zm-7.06-4.67H36l3.14,3.86V15.24h.36v4.67h-.14l-3.15-3.86v3.86h-.36Zm-5.58.26a1.93,1.93,0,0,0-2,2.07,2,2,0,1,0,4,0,1.94,1.94,0,0,0-2-2.07Zm0-.34a2.26,2.26,0,0,1,2.36,2.42,2.36,2.36,0,1,1-4.71,0,2.26,2.26,0,0,1,2.35-2.4Zm-5.41.8-.3.17a1.47,1.47,0,0,0-1.41-.63c-.53,0-1.42.2-1.42.95,0,.59.64.73,1.43.88S25,17.66,25,18.66,24,20,23.17,20a2.11,2.11,0,0,1-1.92-1l.32-.17a1.83,1.83,0,0,0,1.6.85c.57,0,1.49-.17,1.49-1s-.77-.86-1.54-1-1.73-.34-1.73-1.2,1-1.3,1.78-1.3A1.88,1.88,0,0,1,24.88,16Zm-9.77,2.47h2.51l-1.26-2.84Zm3.56,1.48h-.39l-.52-1.14H15l-.5,1.14h-.4l2.1-4.67h.39ZM8.46,15.57v1.82h2.73v.33H8.46v1.84h2.95v.35H8.1V15.23h3.23v.34Zm-6.68,0V17.8H3.44a1.05,1.05,0,0,0,1.18-1.11,1.08,1.08,0,0,0-1-1.12H1.78ZM3.5,18.12l1.64,1.79H4.67L3.06,18.14H1.78v1.77H1.42V15.24H3.47A1.45,1.45,0,0,1,5,16.7,1.37,1.37,0,0,1,3.5,18.12Z"/>
            <g id="Imandra-gradient-logo-blue">
              <g id="Group-2-2" data-name="Group-2">
                <path id="Fill-6" class="cls-2" d="M3.93,0A4,4,0,1,0,4,0Z"/>
                <path id="Fill-12" class="cls-3" d="M14.9,1.88v4.2a1.31,1.31,0,0,0,0,.28,1.87,1.87,0,1,0,3.73-.28V1.88a1.87,1.87,0,1,0-3.73,0"/>
                <path id="Fill-9" class="cls-4" d="M29.49,0a4,4,0,0,0,.05,8h0a4,4,0,0,0,0-7.95Z"/>
                <polygon id="Fill-15" class="cls-5" points="45.1 7.12 45.9 7.12 45.9 0.49 45.1 0.49 45.1 7.12"/>
                <polygon id="Fill-17" class="cls-6" points="60.9 0.49 58.56 3.86 56.23 0.49 55.24 0.49 55.24 7.12 56.04 7.12 56.04 1.65 58.44 5.03 58.62 5.03 61.08 1.71 61.08 7.12 61.88 7.12 61.88 0.49 60.9 0.49"/>
                <path id="Fill-20" class="cls-7" d="M73.32.49l-3,6.63h.93l.61-1.47h3.81l.68,1.47h.86L74.3.49Zm.49.85L75.34,4.9H72.21Z"/>
                <polygon id="Fill-23" class="cls-8" points="90.4 0.49 90.4 5.52 86.35 0.49 85.79 0.49 85.79 7.12 86.59 7.12 86.59 2.08 90.65 7.12 91.2 7.12 91.2 0.49 90.4 0.49"/>
                <path id="Fill-26" class="cls-9" d="M100.55.49V7.12h2.39a3.13,3.13,0,0,0,3.32-3.38A3.1,3.1,0,0,0,102.94.49Zm.79.79h1.6a2.37,2.37,0,0,1,2.52,2.46,2.42,2.42,0,0,1-2.52,2.58h-1.6Z"/>
                <path id="Fill-29" class="cls-10" d="M115.24.49v.73h3a1.39,1.39,0,0,1,1.36,1.41A1.33,1.33,0,0,1,118.13,4H116V2.44l-.73-.62V7.11H116V4.72h1.6l2.1,2.34h1L118.55,4.6a1.89,1.89,0,0,0,1.91-2A2.06,2.06,0,0,0,118.25.49Z"/>
                <path id="Fill-32" class="cls-11" d="M132,.49,129,7.12h.92l.61-1.47h3.81L135,7.12h.86l-3-6.63Zm.5.85L134,4.9h-3.13Z"/>
              </g>
            </g>
            <path class="cls-1" d="M138.19,16.05a.86.86,0,1,1-.86-.87A.82.82,0,0,1,138.19,16.05Zm-1.53,0a.68.68,0,1,0,1.35,0,.66.66,0,0,0-.68-.71.65.65,0,0,0-.67.71Zm.83.11a.28.28,0,0,0-.08-.56H137v.89h.16v-.31h.15l.25.31h.18v0l-.26-.3Zm-.08-.4a.14.14,0,1,1,0,.28h-.24v-.28Z"/>
          </g>
        </g>
      </g>
    </g>
  </g>
</svg>
