<svg xmlns="http://www.w3.org/2000/svg" viewBox="0 0 153.33 62.41">
  <defs>
    <style>
      .cls-1 {
        fill: #3c73b9;
      }

      .cls-2 {
        fill: #3c89c9;
      }

      .cls-3 {
        fill: #2f9ed9;
      }

      .cls-4 {
        fill: #0caee0;
      }

      .cls-5 {
        fill: #1ab8d6;
      }

      .cls-6 {
        fill: #39bac7;
      }

      .cls-7 {
        fill: #49baba;
      }

      .cls-8 {
        fill: #59bcb0;
      }

      .cls-9 {
        fill: #62bda3;
      }

      .cls-10 {
        fill: #63bc9e;
      }
    </style>
  </defs>
  <title>imandra-vertical-gradient</title>
  <g id="Layer_2" data-name="Layer 2">
    <g id="Layer_1-2" data-name="Layer 1">
      <g id="Page-1">
        <g id="imandra.ai-desktop">
          <g id="Group-2">
            <g id="Imandra-gradient-logo-blue">
              <g id="Group-2-2" data-name="Group-2">
                <path id="Fill-6" class="cls-1" d="M18,0a18.15,18.15,0,1,0,.34,0Z"/>
                <path id="Fill-12" class="cls-2" d="M68.2,8.6s0,5,0,10,0,9,0,9.22c0,5,3.09,9.19,8.54,9.19s8.54-4,8.54-9.19V8.6a8.54,8.54,0,1,0-17.08,0"/>
                <g>
                  <path id="Fill-9" class="cls-3" d="M135,0a18.21,18.21,0,0,0,.24,36.42h0A18.21,18.21,0,0,0,135.36,0Z"/>
                  <polygon id="Fill-15" class="cls-4" points="4.24 62.41 5.57 62.41 5.57 51.38 4.24 51.38 4.24 62.41"/>
                  <polygon id="Fill-17" class="cls-5" points="30 51.38 26.12 57 22.24 51.38 20.61 51.38 20.61 62.41 21.93 62.41 21.93 53.32 25.92 58.94 26.22 58.94 30.31 53.42 30.31 62.41 31.64 62.41 31.64 51.38 30 51.38"/>
                  <path id="Fill-20" class="cls-6" d="M50.45,51.38l-4.91,11h1.53l1-2.45h6.32l1.13,2.45H57l-4.91-11Zm.81,1.42,2.56,5.92H48.61Z"/>
                  <polygon id="Fill-23" class="cls-7" points="79.65 51.38 79.65 59.75 72.91 51.38 71.99 51.38 71.99 62.41 73.32 62.41 73.32 54.04 80.06 62.41 81.18 62.41 81.18 51.38 79.65 51.38"/>
                  <path id="Fill-26" class="cls-8" d="M95.72,51.38v11h4c3.88,0,5.52-2.76,5.52-5.62a5.17,5.17,0,0,0-5.52-5.41ZM97,52.71H99.7a3.93,3.93,0,0,1,4.19,4.08,4,4,0,0,1-4.19,4.29H97Z"/>
                  <path id="Fill-29" class="cls-9" d="M118.94,51.38v1.23h5A2.29,2.29,0,0,1,126.19,55a2.2,2.2,0,0,1-2.45,2.25h-3.58V54.63l-1.22-1v8.8h1.32v-4h2.66l3.49,3.88h1.71l-3.67-4.09a3.15,3.15,0,0,0,3.17-3.37,3.43,3.43,0,0,0-3.68-3.47Z"/>
                  <path id="Fill-32" class="cls-10" d="M145,51.38l-4.9,11h1.54l1-2.45H149l1.13,2.45h1.43l-5-11Zm.82,1.42,2.56,5.92H143.2Z"/>
                </g>
              </g>
            </g>
          </g>
        </g>
      </g>
    </g>
  </g>
</svg>
