<svg xmlns="http://www.w3.org/2000/svg" viewBox="0 0 308 86.5"><path d="M174.1 34.2c-5.7 0-10.3 4.1-10.3 10.6 0 6.9 4.3 10.9 10.3 10.9 3.1 0 5.9-.9 8.5-2.7l-2.3-3.6c-1.7 1.1-3.6 1.8-5.7 1.8-2.8 0-4.5-1.5-4.9-4.4h13.2c.2-.9.4-1.8.4-3.3-.1-5.4-3.3-9.3-9.2-9.3m.1 4c2.7 0 3.7 2 3.7 4.6h-8.3c.5-2.9 2.3-4.6 4.6-4.6m84.1-4c-5.7 0-10.3 4.1-10.3 10.6 0 6.9 4.3 10.9 10.3 10.9 3.1 0 5.9-.9 8.5-2.7l-2.3-3.6c-1.7 1.1-3.6 1.8-5.7 1.8-2.8 0-4.5-1.5-4.9-4.4h13.2c.2-.9.4-1.8.4-3.3 0-5.4-3.3-9.3-9.2-9.3m.2 4c2.7 0 3.7 2 3.7 4.6h-8.3c.5-2.9 2.3-4.6 4.6-4.6m21.3-4c-5.7 0-10.3 4.1-10.3 10.6 0 6.9 4.3 10.9 10.3 10.9 3.1 0 5.9-.9 8.5-2.7l-2.3-3.6c-1.7 1.1-3.6 1.8-5.7 1.8-2.8 0-4.5-1.5-4.9-4.4h13.2c.2-.9.4-1.8.4-3.3-.1-5.4-3.3-9.3-9.2-9.3m.1 4c2.7 0 3.7 2 3.7 4.6h-8.3c.5-2.9 2.3-4.6 4.6-4.6m-74.7 1.2c-2.9-.7-5.5-1.4-5.5-3.6 0-1.8 1.7-3 4.3-3 2.4 0 4.9.6 7.2 1.7l2-4.3c-3.2-1.5-6.3-2.2-9.5-2.2-5.8 0-9.8 3.2-9.8 7.9 0 5.9 4.8 7.1 9.1 8.3 3 .8 5.6 1.4 5.6 3.7 0 2-1.7 3.1-4.6 3.1-2.5 0-5.3-.8-7.9-2.4l-2.6 4.3c2.9 1.7 7 2.9 10.6 2.9 6.3 0 10.3-3 10.3-8-.1-6.1-5.1-7.4-9.2-8.4m-73.8 3.5v-1.8c0-1.5-.9-2.4-2.8-2.4-2 0-4 .8-6.5 2l-2-4.1c2.8-1.4 6-2.3 8.8-2.3 5.9 0 8.2 2.9 8.2 7.1V50c0 1.1.7 1.6 1.7 1.6v3.9c-3.9 0-5.5-.6-6.6-2.5-1.7 1.8-3.6 2.9-6.4 2.9-3.6 0-6.1-2.2-6.1-5.4-.2-4.7 4-7.1 11.7-7.6m-3.9 8.8c1.7 0 3-.7 3.9-1.7v-4c-3.2.2-6.3 1-6.3 3.6 0 1.2.9 2.1 2.4 2.1m14.6-17h5.3l.3 2.4c1.5-1.6 3.7-2.9 6.2-2.9 4.6 0 6.5 2.8 6.5 7.5v13.6h-5.6V41.5c0-1.8-.8-3.1-2.7-3.1-1.7 0-3.2.9-4.4 2.4v14.4h-5.6V34.7zm76.8 4h-3.3v-4h3.3v-5.1h5.6v5.1h4.6v4h-4.6v10.2c0 1.5.6 2.3 1.9 2.3 1 0 2-.3 2.8-.9l2.1 3.4c-1.6 1.2-3.7 2.1-6 2.1-4.3 0-6.3-2.1-6.3-6.7V38.7zm14.9-4h5.2l.4 3.2c1.6-2.8 3.5-3.7 5.9-3.7 1 0 1.8.2 2.5.4l-.8 5.1c-.7-.3-1.6-.5-2.8-.5-2.1 0-3.5 1.3-4.8 3.7v12.4h-5.6V34.7zm60 4h-3.3v-4h3.3v-5.1h5.6v5.1h4.6v4h-4.6v10.2c0 1.5.6 2.3 1.9 2.3 1 0 2-.3 2.8-.9l2.1 3.4c-1.6 1.2-3.7 2.1-6 2.1-4.3 0-6.3-2.1-6.3-6.7V38.7zm-184-10.2v17.8c0 2.8-1.3 4.3-3.7 4.3-1.6 0-2.8-.8-3.8-2.1L98.6 52c2 2.4 4.7 3.7 7.9 3.7 5.6 0 9.1-3.2 9.1-9.3V28.5h-5.8zM17.4 59.2l4-2.1c.2-.1.5 0 .6.2 4.6 7.7 13 12.8 22.5 12.8 14.4 0 26.1-11.8 26-26.2 0-14.4-11.8-26.1-26.2-26-14.4 0-26.1 11.8-26 26.2 0 1.7.2 3.3.5 4.9.1.3-.1.5-.4.6l-4.4 1c-.2.1-.5-.1-.6-.3-.4-2-.6-4.1-.6-6.2 0-17.4 14.1-31.7 31.5-31.7 17.5-.1 31.7 14 31.7 31.5 0 17.4-14.1 31.7-31.5 31.7-11.7 0-21.9-6.3-27.4-15.7-.1-.2 0-.5.3-.7m43.7-8.4l4 2.2c.2.1.6 0 .7-.2 1.1-2.7 1.7-5.6 1.8-8.6 0-12.8-10.3-23.2-23-23.3h-.2c-12.6 0-22.9 10.3-23.1 22.9 0 12.7 10.2 23.1 22.9 23.2h.2c6 0 11.5-2.3 15.6-6.2.2-.2.2-.5.1-.7L56.7 57c-.2-.2-.5-.1-.7 0-3.1 2.7-7.2 4.4-11.6 4.4h-.1c-9.7-.1-17.5-8-17.4-17.7.1-9.6 8-17.4 17.5-17.4h.1c9.7.1 17.5 8 17.4 17.7 0 2.1-.4 4.1-1.1 6-.1.4 0 .6.3.8m6.6-39.6c-.2-.1-.5-.1-.7.1L64.4 15c-.1.2-.1.5.1.7C73.3 22 79.1 32.3 79.1 44c0 19.1-15.6 34.7-34.7 34.7C25.3 78.6 9.8 63.1 9.8 44S25.4 9.3 44.5 9.3c4.2 0 8.1.7 11.8 2.1.2.1.5 0 .6-.3l1.6-4.3c.1-.2 0-.5-.3-.6-4.3-1.6-9-2.5-13.8-2.5C22.3 3.8 4.3 21.8 4.3 44c0 22.1 18 40.2 40.2 40.2 22.1 0 40.2-18 40.2-40.2-.1-13.6-6.8-25.5-17-32.8"/></svg>