<svg enable-background="new 0 0 122.8 109.5" viewBox="0 0 122.8 109.5" xmlns="http://www.w3.org/2000/svg"><g fill="#00dd3b"><path d="m68.3 29.4c-2.3-2.9-4.5-5.7-6.9-8.1-2.3 2.5-4.6 5.2-6.8 8.1 4.5-.2 9.1-.2 13.7 0zm-10.9-12.1c-5.1-4.9-17-14.6-23.8-10.7-6.9 4-4.3 19.1-2.7 25.9 5-1.1 10.4-2 16.2-2.6 3.4-4.6 6.8-8.9 10.3-12.6zm22.5 56c3.7-.5 7.2-1.1 10.5-1.9-1-3.2-2.2-6.6-3.6-10-2.1 4.1-4.4 8.1-6.9 11.9zm-4.2 6.2c-3.3 4.7-6.8 9-10.3 12.7 1.6 1.5 3.1 2.8 4.6 4.1 7.9 6.3 15 9 19.2 6.6 6.9-4 4.3-19.1 2.7-26-5 1.2-10.4 2.1-16.2 2.6zm-14.3 16.8c-7.1 6.8-20.8 17.3-30.7 11.5-9.9-5.7-7.7-22.7-5.3-32.3-9.5-2.8-25.4-9.3-25.4-20.8 0-11.4 15.9-18 25.4-20.8-2.4-9.5-4.6-26.5 5.3-32.3 9.9-5.7 23.6 4.7 30.7 11.5 7.2-6.7 20.8-17.2 30.7-11.5 9.9 5.7 7.7 22.7 5.3 32.3 9.5 2.8 25.4 9.4 25.4 20.8s-15.9 18-25.4 20.8c2.3 9.6 4.6 26.6-5.3 32.3-6.5 3.8-15.9.8-25.6-7.1-1.7-1.3-3.4-2.8-5.1-4.4zm-34.5-26.3c1.5-4.9 3.5-10 5.9-15.3-2.4-5.3-4.4-10.4-5.9-15.3-6.8 2-21.2 7.4-21.2 15.3 0 8 14.4 13.4 21.2 15.3zm9.1-22c2.1-4.1 4.4-8 6.9-11.8-3.7.5-7.2 1.1-10.5 1.9 1 3.1 2.2 6.5 3.6 9.9zm59.9-8.6c-1.5 4.9-3.5 10-5.9 15.3 2.4 5.3 4.4 10.4 5.9 15.3 6.7-2 21.2-7.4 21.2-15.3s-14.4-13.3-21.2-15.3zm-38.5 52.8c-3.5-3.7-6.9-8-10.3-12.7-5.7-.5-11.2-1.4-16.2-2.6-1.7 6.8-4.2 22 2.7 26 6.9 4 18.7-5.8 23.8-10.7zm4-4c2.3-2.5 4.6-5.2 6.9-8.1-4.6.2-9.1.2-13.7 0 2.2 2.9 4.5 5.6 6.8 8.1zm11.2-14.1c4.2-6.1 7.9-12.6 11.1-19.3-3.2-6.7-7-13.2-11.2-19.3-7.4-.5-14.9-.5-22.4 0-4.2 6.1-7.9 12.7-11.2 19.3 3.2 6.7 7 13.2 11.2 19.3 7.6.5 15.1.5 22.5 0zm14.2-26.1c1.4-3.4 2.7-6.8 3.7-10-3.3-.8-6.8-1.4-10.5-1.9 2.4 3.9 4.7 7.9 6.8 11.9zm5.1-15.5c1.7-6.8 4.2-22-2.7-25.9-6.9-4-18.8 5.8-23.8 10.6 3.5 3.8 7 8 10.3 12.7 5.8.6 11.3 1.5 16.2 2.6zm-55.9 28.9c-1.4 3.4-2.6 6.8-3.6 10 3.3.7 6.8 1.4 10.5 1.9-2.4-3.8-4.7-7.8-6.9-11.9z"/><path clip-rule="evenodd" d="m58.5 38.1 2.9 2.9 2.9-2.9 2.3 2.4-2.9 2.9 2.9 2.9-2.3 2.3-2.9-2.9-2.9 2.9-2.4-2.3 2.9-2.9-2.9-2.9zm8.1 25.2-2.9 2.9 2.9 2.9-2.3 2.3-2.9-2.9-2.9 2.9-2.3-2.4 2.9-2.9-2.9-2.9 2.4-2.4 2.9 2.9 2.9-2.9zm0-11.4-2.9 2.9 2.9 2.9-2.3 2.3-2.9-2.9-2.9 2.9-2.4-2.3 2.9-2.9-2.9-2.9 2.4-2.4 2.9 2.9 2.9-2.9z" fill-rule="evenodd"/></g></svg>