<svg viewBox="0 0 430 200" xmlns="http://www.w3.org/2000/svg" fill-rule="evenodd" clip-rule="evenodd" stroke-linejoin="round" stroke-miterlimit="1.41421"><g transform="translate(291 323.438)"><path d="M-140.718-251.303c1.8.52 3.587 1.085 5.36 1.695 17.98 6.219 29.6 15.959 29.6 26.03 0 10.503-12.418 20.772-31.504 27.125a100 100 0 0 1-3.095.97c.368 1.482.701 2.973.997 4.471 3.769 19.117.867 34.832-8.063 40.024-8.645 5.028-22.62.089-36.769-12.142a109.407 109.407 0 0 1-4.501-4.125 94.448 94.448 0 0 1-3.474 3.217c-14.607 12.826-29.608 18.148-38.546 12.971-8.654-5.014-11.373-19.641-7.891-38.064.38-2.002.817-3.993 1.308-5.97a94.466 94.466 0 0 1-4.503-1.414c-18.359-6.303-30.442-16.698-30.442-27.063 0-10.035 11.257-19.71 28.882-25.883a110.465 110.465 0 0 1 6.161-1.946 111.74 111.74 0 0 1-1.23-5.54c-3.652-18.747-1.081-33.73 7.595-38.775 9.05-5.262 24.118.389 39.152 13.798a98.406 98.406 0 0 1 2.758 2.56 111.44 111.44 0 0 1 4.146-3.822c14.345-12.54 28.55-17.786 37.234-12.755 9.058 5.247 11.71 21.184 7.653 40.966-.253 1.23-.529 2.453-.828 3.672zm-1.576 48.945c.937-.278 1.868-.57 2.795-.877h.002c16.478-5.486 26.627-13.878 26.627-20.343 0-6.07-9.398-13.947-24.803-19.274a105.754 105.754 0 0 0-4.95-1.57c-2.047 6.66-4.781 13.692-8.102 20.88 3.479 7.36 6.323 14.485 8.43 21.186v-.002zm-3.242 34.805c1.104-5.975.866-13.618-.8-22.071a87.1 87.1 0 0 0-.9-4.047c-6.898 1.602-14.5 2.775-22.55 3.492-4.574 6.653-9.263 12.645-13.954 17.8a102.119 102.119 0 0 0 4.186 3.834c12.1 10.46 23.32 14.425 28.567 11.374 2.466-1.434 4.46-5.013 5.451-10.382zm-81.624 10.297c2.468 1.428 6.55 1.377 11.676-.441 5.705-2.026 12.177-6.049 18.637-11.72a87.042 87.042 0 0 0 3.173-2.934c-4.862-5.241-9.686-11.226-14.292-17.737-8.067-.657-15.616-1.748-22.434-3.263-.457 1.84-.863 3.691-1.217 5.554-2.976 15.752-.794 27.499 4.457 30.54zm-31.755-56.38c4.595 3.95 11.3 7.574 19.418 10.36 1.359.465 2.729.896 4.11 1.293 2.102-6.886 4.874-14.118 8.214-21.421-3.298-7.197-6.03-14.314-8.114-21.121a101.65 101.65 0 0 0-5.73 1.81c-15.074 5.28-24.113 13.047-24.113 19.137 0 2.861 2.086 6.388 6.215 9.941zm31.644-75.902c-5.228 3.04-7.306 15.157-4.177 31.22v-.001c.338 1.726.72 3.445 1.144 5.152 6.891-1.568 14.386-2.738 22.216-3.467 4.566-6.474 9.347-12.414 14.182-17.63a91.922 91.922 0 0 0-2.498-2.317c-12.98-11.578-25.298-16.197-30.867-12.957zm62.574 40.669a227.075 227.075 0 0 1 5.062 8.363c1.654 2.868 3.25 5.77 4.79 8.702 2.105-4.951 3.894-9.782 5.328-14.4a155.878 155.878 0 0 0-15.181-2.665h.001zm-14.426-8.41c-3.232-4.325-6.516-8.31-9.798-11.88-3.33 3.61-6.644 7.59-9.879 11.875a208.43 208.43 0 0 1 19.677.005zm-43.97 25.47c2.999-5.84 6.27-11.538 9.803-17.073-5.277.662-10.343 1.534-15.092 2.602 1.447 4.685 3.219 9.537 5.289 14.472zm-5.387 31.567c4.748 1.038 9.89 1.867 15.343 2.478a211.474 211.474 0 0 1-9.948-17.243c-2.115 5.041-3.926 9.996-5.396 14.765h.001zm29.74 10.707c3.283 4.348 6.646 8.389 10.016 12.043 3.258-3.603 6.532-7.651 9.775-12.077-3.302.147-6.657.223-10.05.223-3.304 0-6.553-.063-9.741-.189zm49.553-11.016c-1.49-4.688-3.366-9.617-5.591-14.712a227.851 227.851 0 0 1-4.828 8.861 249.336 249.336 0 0 1-5.111 8.51c5.491-.661 10.702-1.553 15.53-2.66zm-24.568 3.524a234.94 234.94 0 0 0 7.988-12.945 215.456 215.456 0 0 0 7.154-13.536 234.437 234.437 0 0 0-7.177-13.418 215.126 215.126 0 0 0-8.022-12.867c-10.1-.768-20.245-.77-30.347-.005a201.285 201.285 0 0 0-8.072 12.91v-.002a203.64 203.64 0 0 0-7.082 13.483 202.754 202.754 0 0 0 15.24 26.44c4.854.316 9.893.478 15.073.478 5.202 0 10.307-.183 15.245-.538zm26.9-59.39c3.502-17.08 1.334-30.105-4.24-33.334-5.235-3.033-16.722 1.21-29.013 11.954a104.237 104.237 0 0 0-3.83 3.529c4.76 5.149 9.5 11.1 14.074 17.643 7.853.74 15.353 1.931 22.26 3.532.27-1.104.519-2.212.75-3.325z"/><path d="M-207.648-234.809h8.117v7.791h-8.117v-7.791zm0 15.546v7.048h8.117v-7.048h-8.117zm14.977 0v7.048h19.509v-7.048h-19.509zm19.509-7.755v-7.791h-19.509v7.791h19.509z"/><path d="M-88.854-278.221h16.704c4.864 0 8.629 1.173 11.296 3.52 2.666 2.346 4 5.653 4 9.92 0 2.858-.726 5.354-2.176 7.488-1.451 2.133-3.499 3.733-6.144 4.8-.384.128-.576.362-.576.704 0 .17.064.384.192.64l2.24 3.2 5.312 14.528h-10.176l-6.592-17.92h-3.84v17.92h-10.24v-44.8zm17.088 18.56c1.834 0 3.264-.448 4.288-1.344 1.024-.896 1.536-2.155 1.536-3.776 0-1.622-.512-2.88-1.536-3.776-1.024-.896-2.454-1.344-4.288-1.344h-6.912v10.24h6.912zm44.864 12.224h-17.536c0 .554.021.96.064 1.216.341 3.754 2.73 5.632 7.168 5.632 2.176 0 4.608-.619 7.296-1.856l2.432 6.848c-2.816 1.877-6.059 2.816-9.728 2.816-4.352 0-7.936-1.035-10.752-3.104-2.816-2.07-4.48-4.726-4.992-7.968-.256-2.048-.384-3.883-.384-5.504 0-1.707.128-3.606.384-5.696.469-3.456 1.898-6.262 4.288-8.416 2.389-2.155 5.482-3.232 9.28-3.232 4.608 0 8.064 1.354 10.368 4.064 2.304 2.709 3.456 6.666 3.456 11.872l-1.344 3.328zm-7.36-6.464c-.342-3.542-2.006-5.312-4.992-5.312-1.579 0-2.763.448-3.552 1.344-.79.896-1.291 2.218-1.504 3.968h10.048zm32.576 18.496c-.256-.342-.534-.512-.832-.512-.128 0-.342.106-.64.32-2.304 1.792-4.928 2.688-7.872 2.688-3.072 0-5.515-.896-7.328-2.688-1.814-1.792-2.72-4.096-2.72-6.912 0-2.987 1.056-5.302 3.168-6.944 2.112-1.643 4.81-2.464 8.096-2.464h5.568v-3.136c0-2.688-1.899-4.032-5.696-4.032-2.518 0-5.227.853-8.128 2.56l-2.624-7.168c3.626-2.091 7.445-3.136 11.456-3.136 4.48 0 7.861 1.066 10.144 3.2 2.282 2.133 3.424 4.97 3.424 8.512v12.8l3.392 4.864-7.36 4.8-2.048-2.752zm-7.296-4.224c1.45 0 2.602-.459 3.456-1.376.853-.918 1.28-2.102 1.28-3.552v-.832c0-.256-.107-.427-.32-.512-.214-.086-.491-.086-.832 0l-2.304.704h-1.984c-1.024 0-1.792.224-2.304.672-.512.448-.768 1.077-.768 1.888 0 .853.362 1.568 1.088 2.144.725.576 1.621.864 2.688.864zm35.136 6.976c-4.224 0-7.595-1.046-10.112-3.136-2.518-2.091-3.99-4.843-4.416-8.256a46.581 46.581 0 0 1-.384-5.76c0-2.134.128-4.054.384-5.76.469-3.371 1.941-6.091 4.416-8.16 2.474-2.07 5.781-3.104 9.92-3.104 2.005 0 3.861.266 5.568.8 1.706.533 3.136 1.29 4.288 2.272l-2.56 7.04c-1.024-.768-2.038-1.334-3.04-1.696-1.003-.363-2.208-.544-3.616-.544-1.75 0-3.158.448-4.224 1.344-1.067.896-1.643 2.026-1.728 3.392a54.828 54.828 0 0 0-.192 4.416c0 1.322.064 2.816.192 4.48.085 1.365.672 2.496 1.76 3.392 1.088.896 2.549 1.344 4.384 1.344 2.261 0 4.48-.683 6.656-2.048l2.432 6.848c-2.688 2.09-5.931 3.136-9.728 3.136zm25.664-.832c-2.219.042-4.054-.651-5.504-2.08-1.451-1.43-2.176-3.275-2.176-5.536v-17.28h-5.056v-7.68h4.032c.426 0 .725-.118.896-.352.17-.235.362-.8.576-1.696.213-.896.448-2.048.704-3.456l.384-2.176h7.808v7.68h5.312v7.68h-5.312v15.616c0 .298.096.544.288.736a.996.996 0 0 0 .736.288h4.864v8.256h-7.552zm-140.672 19.264h27.52v8.96h-17.28v8.96h16.192v8.96h-16.192v17.92h-10.24v-44.8zm36.48 0h9.6v7.808h-9.6v-7.808zm0 20.096h-5.76v-7.936h15.36v32.64h-9.6v-24.704zm17.92-7.936h9.6v1.792c2.218-1.707 4.8-2.56 7.744-2.56 3.072 0 5.664.853 7.776 2.56 2.112 1.706 3.168 4.181 3.168 7.424v23.424h-9.6v-20.096c0-1.664-.31-2.848-.928-3.552-.619-.704-1.782-1.056-3.488-1.056-1.707 0-2.912.362-3.616 1.088-.704.725-1.056 1.898-1.056 3.52v20.096h-9.6v-32.64zm43.968 32.576c-2.262 0-4.107-.715-5.536-2.144-1.43-1.43-2.144-3.254-2.144-5.472v-40.32h9.344v38.656c0 .298.096.544.288.736a.996.996 0 0 0 .736.288h3.456v8.256H9.514zm29.376-1.92c-.256-.342-.534-.512-.832-.512-.128 0-.342.106-.64.32-2.304 1.792-4.928 2.688-7.872 2.688-3.072 0-5.515-.896-7.328-2.688-1.814-1.792-2.72-4.096-2.72-6.912 0-2.987 1.056-5.302 3.168-6.944 2.112-1.643 4.81-2.464 8.096-2.464h5.568v-3.136c0-2.688-1.899-4.032-5.696-4.032-2.518 0-5.227.853-8.128 2.56l-2.624-7.168c3.626-2.091 7.445-3.136 11.456-3.136 4.48 0 7.861 1.066 10.144 3.2 2.282 2.133 3.424 4.97 3.424 8.512v12.8l3.392 4.864-7.36 4.8-2.048-2.752zm-7.296-4.224c1.45 0 2.602-.459 3.456-1.376.853-.918 1.28-2.102 1.28-3.552v-.832c0-.256-.107-.427-.32-.512-.214-.086-.491-.086-.832 0l-2.304.704H30.89c-1.024 0-1.792.224-2.304.672-.512.448-.768 1.077-.768 1.888 0 .853.362 1.568 1.088 2.144.725.576 1.621.864 2.688.864zm22.144-26.432h9.6v1.792c2.218-1.707 4.8-2.56 7.744-2.56 3.072 0 5.664.853 7.776 2.56 2.112 1.706 3.168 4.181 3.168 7.424v23.424h-9.6v-20.096c0-1.664-.31-2.848-.928-3.552-.619-.704-1.782-1.056-3.488-1.056-1.707 0-2.912.362-3.616 1.088-.704.725-1.056 1.898-1.056 3.52v20.096h-9.6v-32.64zm46.912 33.28c-7.126 0-10.987-3.499-11.584-10.496-.214-2.902-.32-5.099-.32-6.592 0-2.219.106-4.374.32-6.464.341-3.456 1.504-6.07 3.488-7.84 1.984-1.771 4.896-2.656 8.736-2.656 1.365 0 2.677.181 3.936.544 1.258.362 2.272.842 3.04 1.44v-16.576h9.6v48h-9.6v-1.472c0-.512-.192-.768-.576-.768-.214 0-.47.085-.768.256l-4.096 2.368c-.64.17-1.366.256-2.176.256zm2.688-7.936c1.536 0 2.741-.416 3.616-1.248.874-.832 1.312-1.91 1.312-3.232v-9.216c0-1.408-.406-2.496-1.216-3.264-.811-.768-2.048-1.152-3.712-1.152-1.408 0-2.518.33-3.328.992-.811.661-1.259 1.525-1.344 2.592-.171 2.389-.256 4.202-.256 5.44 0 1.28.085 3.114.256 5.504.085 1.066.512 1.93 1.28 2.592.768.661 1.898.992 3.392.992z" fill-rule="nonzero"/></g></svg>