<svg height="500" viewBox="0 0 500 500" width="500" xmlns="http://www.w3.org/2000/svg"><g fill="none" fill-rule="evenodd" transform="translate(52 74)"><g fill="#607096" fill-rule="nonzero"><path d="m198.078 112.91c45.706 0 89.124 6.439 122.132 17.794 36.66 12.61 59.022 31.254 59.022 45.62 0 15.301-24.15 35.167-63.363 48.149-31.218 10.335-72.986 15.968-117.791 15.968-47.07 0-89.309-5.523-120.164-16.062-19.317-6.597-35.27-15.17-46.204-24.527-9.826-8.408-14.786-16.756-14.786-23.529 0-14.413 21.506-32.799 57.375-45.294 33.022-11.503 77.503-18.119 123.779-18.119zm0-16.91c-48.074 0-94.418 6.893-129.35 19.061-41.944 14.612-68.728 37.51-68.728 61.262 0 24.532 28.755 49.138 72.44 64.058 32.837 11.215 76.852 16.97 125.638 16.97 46.495 0 90.02-5.87 123.113-16.826 45.416-15.035 74.964-39.342 74.964-64.202 0-23.838-27.65-46.89-70.436-61.609-34.889-12.002-80.153-18.714-127.641-18.714z"/><path d="m143.258 144.255c22.833-39.562 50.106-73.927 76.44-96.827 29.247-25.431 56.582-35.473 69.036-28.297 13.267 7.644 18.425 38.473 10.09 78.9-6.636 32.184-22.618 71.152-45.001 109.935-23.515 40.743-49.404 74.544-73.956 95.988-15.37 13.425-30.772 22.95-44.347 27.74-12.197 4.304-21.913 4.428-27.785 1.044-12.496-7.2-17.69-35-10.605-72.29 6.523-34.33 23.01-76.136 46.128-116.193zm-14.66-8.448c-24.017 41.614-41.194 85.17-48.094 121.486-8.286 43.604-1.816 78.227 18.777 90.094 21.269 12.255 56.965-.342 91.724-30.701 26.128-22.821 53.106-58.044 77.478-100.272 23.227-40.245 39.882-80.852 46.917-114.971 9.653-46.822 3.342-84.542-18.211-96.961-20.667-11.909-54.466.508-88.6 30.19-27.836 24.206-56.268 60.03-79.991 101.135z"/><path d="m143.22 208.674c-22.9-39.524-39.076-80.296-45.78-114.53-7.444-38.018-2.5-66.697 9.943-73.894 13.254-7.667 42.56 3.264 73.449 30.67 24.592 21.817 50.397 55.113 72.846 93.86 23.582 40.702 39.96 79.995 46.293 111.959 3.964 20.01 4.53 38.1 1.904 52.243-2.36 12.709-7.104 21.18-12.97 24.574-12.485 7.222-39.184-2.164-67.977-26.922-26.507-22.791-54.522-57.942-77.708-97.96zm-14.647 8.472c24.087 41.573 53.276 78.196 81.316 102.306 33.668 28.95 66.921 40.64 87.494 28.739 21.249-12.291 28.154-49.484 19.19-94.736-6.74-34.016-23.806-74.96-48.249-117.148-23.295-40.207-50.186-74.904-76.256-98.033-35.774-31.74-71.632-45.114-93.164-32.659-20.647 11.943-26.761 47.403-18.072 91.777 7.086 36.185 23.95 78.689 47.741 119.754z"/></g><path d="m208.08 129h29.907c-.044 2.45-.315 15.928-1.103 28.214h-28.804zm-19.173 28.214h-28.803c-.789-12.286-1.06-25.765-1.104-28.214h29.907zm45.921 18.465c-2.365 12.279-7.275 25.587-12.956 34.707-3.422 5.493-8.324 11.223-13.792 14.637v-49.344zm-45.92 49.344c-5.469-3.414-10.37-9.144-13.792-14.637-5.681-9.12-10.592-22.428-12.957-34.707h26.748v49.344z" fill="#ff6363"/></g></svg>