<svg height="262" viewBox="0 0 889 262" width="889" xmlns="http://www.w3.org/2000/svg"><g fill="none" fill-rule="evenodd"><path d="m0 0h261v262h-261z" fill="#607096" fill-rule="nonzero"/><g fill="#fff" fill-rule="nonzero" transform="translate(61.714 144.552)"><path d="m61.071 102.154-14.785-28.162h-19.64v28.162h-26.466v-101.747h45.546c13.398 0 23.784 3.12 31.16 9.363 7.375 6.243 11.065 15.032 11.07 26.368 0 7.645-1.543 14.249-4.629 19.811a32.05 32.05 0 0 1 -13.447 12.991l21.11 33.24zm-34.411-49.354h19.235c5.395 0 9.565-1.355 12.51-4.065 2.944-2.71 4.414-6.63 4.41-11.758 0-4.935-1.47-8.733-4.41-11.397-2.94-2.663-7.11-3.994-12.51-3.994h-19.249z"/><path d="m104.869286.40655172h79.965v21.19231528h-53.505v19.0175862h48.297857v21.0438916l-48.297857.1484237v19.1595566h54.945v21.1858619h-81.405z"/></g><path d="m276.7 144.85h29.55l26.25 76.05 26.4-76.05h28.2l-41.1 105.15h-28.5zm120.3 0h27.45v105.15h-27.45zm47.85 0h82.95v21.9h-55.5v19.65h50.1v21.75l-50.1.15v19.8h57v21.9h-84.45zm173.1 0h25.5v105.15h-24l-47.7-62.85v62.85h-25.65v-105.15h24.15l47.85 63.3zm117.9 0h25.5v105.15h-24l-47.7-62.85v62.85h-25.65v-105.15h24.15l47.85 63.3zm123.3 105.15-7.2-18.6h-45.45l-7.35 18.6h-28.2l45.15-105.15h28.2l44.1 105.15zm-44.4-39.6h29.1l-14.4-37.5z" fill="#ff6363"/></g></svg>