<svg xmlns="http://www.w3.org/2000/svg" viewBox="0 0 511.22 168.87"><defs><style>.cls-1{fill:#f9543e;}</style></defs><title>ReasonAssocMain_red</title><g id="Ebene_2" data-name="Ebene 2"><g id="Guides"><path class="cls-1" d="M210.5,76.3h-6.45a1,1,0,0,0-1,1V89.06a1,1,0,0,1-1,1H189.39a1,1,0,0,1-1-1V39.26a1,1,0,0,1,1-1h22.68a29.43,29.43,0,0,1,12.21,2.33,18.07,18.07,0,0,1,8,6.66,18.32,18.32,0,0,1,2.81,10.18,18,18,0,0,1-2.63,9.81,17.44,17.44,0,0,1-6.5,6,1,1,0,0,0-.37,1.46L235,88.49a1,1,0,0,1-.83,1.58H221a1,1,0,0,1-.84-.44l-8.8-12.89A1,1,0,0,0,210.5,76.3ZM218,51.79q-2.3-2-6.81-2h-7.13a1,1,0,0,0-1,1V64a1,1,0,0,0,1,1h7.13q4.51,0,6.81-2a7,7,0,0,0,2.3-5.59A7.08,7.08,0,0,0,218,51.79Z"/><path class="cls-1" d="M286.06,79.75v9.31a1,1,0,0,1-1,1H245.47a1,1,0,0,1-1-1V39.26a1,1,0,0,1,1-1h38.62a1,1,0,0,1,1,1v9.3a1,1,0,0,1-1,1H260a1,1,0,0,0-1,1V57.3a1,1,0,0,0,1,1h21a1,1,0,0,1,1,1v8.94a1,1,0,0,1-1,1H260a1,1,0,0,0-1,1v7.45a1,1,0,0,0,1,1h25.07A1,1,0,0,1,286.06,79.75Z"/><path class="cls-1" d="M329.36,80H308.81a1,1,0,0,0-.94.63l-3.56,8.81a1,1,0,0,1-.94.63H290.65a1,1,0,0,1-.92-1.42l22-49.8a1,1,0,0,1,.92-.6h13.13a1,1,0,0,1,.92.6l22.05,49.8a1,1,0,0,1-.92,1.42h-13a1,1,0,0,1-.93-.63l-3.56-8.81A1,1,0,0,0,329.36,80Zm-4.17-12.19L320,54.94a1,1,0,0,0-1.87,0L313,67.81a1,1,0,0,0,.93,1.38h10.34A1,1,0,0,0,325.19,67.81Z"/><path class="cls-1" d="M358.19,89.55l-3.44-.9a1.06,1.06,0,0,1-.69-.63l-3.5-9.47a1,1,0,0,1,1.22-1.32,92.9,92.9,0,0,0,9.65,2.13,53.83,53.83,0,0,0,9,.67c5.63,0,8.51-1.73,8.51-4.55a3.49,3.49,0,0,0-2.4-3.29,44.79,44.79,0,0,0-7.74-2.26,74.06,74.06,0,0,1-9.77-2.7,16.37,16.37,0,0,1-6.74-4.63A12.51,12.51,0,0,1,349.46,54a14.89,14.89,0,0,1,2.59-8.56,17.37,17.37,0,0,1,7.74-6,31.82,31.82,0,0,1,12.62-2.22,44.25,44.25,0,0,1,10.07,1.15,31.36,31.36,0,0,1,7.95,2.92,1,1,0,0,1,.44,1.28l-3.75,9a1,1,0,0,1-1.4.5,29.47,29.47,0,0,0-13.38-3.49q-4.38,0-6.37,1.3a3.88,3.88,0,0,0-2,3.36,3.33,3.33,0,0,0,2.37,3.11A42,42,0,0,0,374,58.53a71.85,71.85,0,0,1,9.81,2.7,17,17,0,0,1,6.74,4.59q2.85,3.15,2.85,8.55a14.54,14.54,0,0,1-2.59,8.44,17.72,17.72,0,0,1-7.77,6,31.56,31.56,0,0,1-12.59,2.26A47.83,47.83,0,0,1,358.19,89.55Z"/><path class="cls-1" d="M411,87.63a26,26,0,0,1-14-23.47,25.93,25.93,0,0,1,14-23.47,33.08,33.08,0,0,1,29.54,0,26.5,26.5,0,0,1,0,46.94,33.08,33.08,0,0,1-29.54,0Zm21.87-10.52a13.26,13.26,0,0,0,5-5.22,17.1,17.1,0,0,0,0-15.47,13.4,13.4,0,0,0-5-5.22,14.57,14.57,0,0,0-14.21,0,13.37,13.37,0,0,0-5,5.22,17,17,0,0,0,0,15.47,13.24,13.24,0,0,0,5,5.22,14.57,14.57,0,0,0,14.21,0Z"/><path class="cls-1" d="M511.22,39.26v49.8a1,1,0,0,1-1,1H499.63a1,1,0,0,1-.78-.37L478.07,64.61a1,1,0,0,0-1.79.65v23.8a1,1,0,0,1-1,1H462.92a1,1,0,0,1-1-1V39.26a1,1,0,0,1,1-1h10.59a1,1,0,0,1,.77.36L495.07,63.7a1,1,0,0,0,1.79-.64V39.26a1,1,0,0,1,1-1h12.34A1,1,0,0,1,511.22,39.26Z"/><path class="cls-1" d="M216.72,130.76l-12.1-27.32-.06-.15h-7.94l-.07.15-12.06,27.32-.15.36h8.43l.07-.16,1.83-4.53a1,1,0,0,1,.92-.62h9.88a1,1,0,0,1,.92.62l1.83,4.53.06.16h8.6Zm-15.5-17.25,1.9,4.73a1,1,0,0,1-.93,1.37h-3.33a1,1,0,0,1-.93-1.37l1.9-4.73A.75.75,0,0,1,201.22,113.51Z"/><path class="cls-1" d="M243.07,122.59a7.93,7.93,0,0,1-1.41,4.59,9.61,9.61,0,0,1-4.2,3.27,17,17,0,0,1-6.74,1.21,25.57,25.57,0,0,1-6.5-.83,28,28,0,0,1-5-2.17.4.4,0,0,1-.17-.51l2.42-5.42a.38.38,0,0,1,.53-.19,29.7,29.7,0,0,0,4.08,1.88,16.18,16.18,0,0,0,4.69.73c2.79,0,4.2-.66,4.2-2a1.6,1.6,0,0,0-1.12-1.51,23,23,0,0,0-4-1.18,39.1,39.1,0,0,1-5.19-1.43,9,9,0,0,1-3.65-2.51,6.84,6.84,0,0,1-1.55-4.69,8.15,8.15,0,0,1,1.41-4.65,9.41,9.41,0,0,1,4.19-3.27,17.1,17.1,0,0,1,6.75-1.19,23.65,23.65,0,0,1,5.37.61,28.85,28.85,0,0,1,4.51,1.74.42.42,0,0,1,.2.53l-2.25,5.42a.4.4,0,0,1-.56.21c-1.11-.57-4.45-2.15-7.3-2a7,7,0,0,0-3.23.64,1.8,1.8,0,0,0-.94,1.57,1.53,1.53,0,0,0,1.1,1.41,22.78,22.78,0,0,0,4,1.11,39,39,0,0,1,5.2,1.44,9.17,9.17,0,0,1,3.65,2.48A6.75,6.75,0,0,1,243.07,122.59Z"/><path class="cls-1" d="M270.07,122.59a7.93,7.93,0,0,1-1.41,4.59,9.61,9.61,0,0,1-4.2,3.27,17,17,0,0,1-6.74,1.21,25.57,25.57,0,0,1-6.5-.83,28,28,0,0,1-5-2.17.4.4,0,0,1-.17-.51l2.42-5.42a.38.38,0,0,1,.53-.19,29.7,29.7,0,0,0,4.08,1.88,16.18,16.18,0,0,0,4.69.73c2.79,0,4.2-.66,4.2-2a1.6,1.6,0,0,0-1.12-1.51,23,23,0,0,0-4-1.18,39.1,39.1,0,0,1-5.19-1.43,9,9,0,0,1-3.65-2.51,6.84,6.84,0,0,1-1.55-4.69,8.15,8.15,0,0,1,1.41-4.65,9.41,9.41,0,0,1,4.19-3.27,17.1,17.1,0,0,1,6.75-1.19,23.65,23.65,0,0,1,5.37.61,28.85,28.85,0,0,1,4.51,1.74.42.42,0,0,1,.2.53l-2.25,5.42a.4.4,0,0,1-.56.21c-1.11-.57-4.45-2.15-7.3-2a7,7,0,0,0-3.23.64,1.8,1.8,0,0,0-.94,1.57,1.53,1.53,0,0,0,1.1,1.41,22.78,22.78,0,0,0,4,1.11,39,39,0,0,1,5.2,1.44,9.17,9.17,0,0,1,3.65,2.48A6.75,6.75,0,0,1,270.07,122.59Z"/><path class="cls-1" d="M302.45,109.77a14.15,14.15,0,0,0-5.52-5.16,17.73,17.73,0,0,0-15.81,0,14.23,14.23,0,0,0,0,25.19,17.73,17.73,0,0,0,15.81,0,14.44,14.44,0,0,0,5.52-20Zm-13.42,15a7.13,7.13,0,0,1-3.62-.94,6.76,6.76,0,0,1-2.56-2.66,8.73,8.73,0,0,1,0-7.92,6.73,6.73,0,0,1,2.56-2.65,7.44,7.44,0,0,1,7.24,0,6.8,6.8,0,0,1,2.56,2.65,8.73,8.73,0,0,1,0,7.92,6.83,6.83,0,0,1-2.56,2.66A7.16,7.16,0,0,1,289,124.76Z"/><path class="cls-1" d="M335.46,126.07l.17.16-.14.19a13.34,13.34,0,0,1-5.09,3.89,16.83,16.83,0,0,1-6.86,1.35,16.57,16.57,0,0,1-7.83-1.84,14,14,0,0,1-5.46-5.15,15,15,0,0,1,0-14.93,14,14,0,0,1,5.46-5.15,16.57,16.57,0,0,1,7.83-1.84,17,17,0,0,1,6.86,1.34,13.36,13.36,0,0,1,5.09,3.9l.14.19-.17.15-4.92,4.45-.19.18-.17-.2a7.86,7.86,0,0,0-6.25-3.11,7.72,7.72,0,0,0-3.84.94,6.61,6.61,0,0,0-2.59,2.65,8.9,8.9,0,0,0,0,7.92,6.57,6.57,0,0,0,2.59,2.66,8,8,0,0,0,10.09-2.17l.17-.2.19.17Z"/><rect class="cls-1" x="340.01" y="103.29" width="8.23" height="27.83" rx="1" ry="1"/><path class="cls-1" d="M384.06,130.76,372,103.44l-.06-.15H364l-.06.15-12.07,27.32-.15.36h8.44l.06-.16,1.83-4.53a1,1,0,0,1,.92-.62h9.88a1,1,0,0,1,.92.62l1.83,4.53.07.16h8.59Zm-18.78-12.52,1.89-4.73a.76.76,0,0,1,1.4,0l1.89,4.73a1,1,0,0,1-.93,1.37h-3.32A1,1,0,0,1,365.28,118.24Z"/><path class="cls-1" d="M407,104.29v4.88a.76.76,0,0,1-.75.75H399.4a.75.75,0,0,0-.75.75v19.45a1,1,0,0,1-1,1h-6.23a1,1,0,0,1-1-1V110.67a.75.75,0,0,0-.75-.75h-6.89a.76.76,0,0,1-.75-.75v-4.88a1,1,0,0,1,1-1h23A1,1,0,0,1,407,104.29Z"/><rect class="cls-1" x="410.91" y="103.29" width="8.23" height="27.83" rx="1" ry="1"/><path class="cls-1" d="M453.35,109.77a14.15,14.15,0,0,0-5.52-5.16,17.73,17.73,0,0,0-15.81,0,14.15,14.15,0,0,0-5.52,5.16,14.23,14.23,0,0,0,5.52,20,17.73,17.73,0,0,0,15.81,0,14.44,14.44,0,0,0,5.52-20Zm-13.43,15a7.16,7.16,0,0,1-3.62-.94,6.9,6.9,0,0,1-2.56-2.66,8.81,8.81,0,0,1,0-7.92,6.8,6.8,0,0,1,2.56-2.65,7.44,7.44,0,0,1,7.24,0,6.73,6.73,0,0,1,2.56,2.65,8.73,8.73,0,0,1,0,7.92,6.76,6.76,0,0,1-2.56,2.66A7.13,7.13,0,0,1,439.92,124.76Z"/><path class="cls-1" d="M487.14,104.29v25.83a1,1,0,0,1-1,1h-5.73l-.07-.1-9.85-11.89a1,1,0,0,0-1.77.64v10.35a1,1,0,0,1-1,1h-6.07a1,1,0,0,1-1-1V104.29a1,1,0,0,1,1-1h5.73l.07.09,10.29,12.43a.75.75,0,0,0,1.33-.48v-11a1,1,0,0,1,1-1h6.07A1,1,0,0,1,487.14,104.29Z"/><path class="cls-1" d="M61.86,42.23a1.31,1.31,0,0,1,.28.09A1.52,1.52,0,0,0,61.86,42.23Zm-.63,0h0Zm0,0a1.58,1.58,0,0,0-.36.14A1.42,1.42,0,0,1,61.21,42.26Zm0,0a2.21,2.21,0,0,1,.35,0A1.45,1.45,0,0,0,61.23,42.25Zm.36,0h0Zm0,0,.24,0Z"/><path class="cls-1" d="M147.63,122.11,129.45,83.26a2.13,2.13,0,0,1,0-1.86l18-34.52a4.51,4.51,0,0,0-1.76-6L76,.61a4.53,4.53,0,0,0-4.54,0L2.27,40.55A4.56,4.56,0,0,0,0,44.48v79.89a4.57,4.57,0,0,0,2.28,3.95l69.19,40a4.64,4.64,0,0,0,2.27.6,4.7,4.7,0,0,0,2.27-.6L145.78,128A4.6,4.6,0,0,0,147.63,122.11ZM73.74,13.87,127,44.6,73.05,75.35,48.3,61.14l20.82-12a1.83,1.83,0,0,0,.91-1.6A1.8,1.8,0,0,0,69.12,46L62.5,42.06a1.68,1.68,0,0,0-.91-.25,1.93,1.93,0,0,0-.94.24L38,55.08l-17-10.33Zm-60.31,41,47,27.7-47.79,28Zm4,67.57,21.36-12.6L57,145.3ZM76.1,153.62,49.65,103.39,72,90l.22-.1,55.07-31-12,22.51a1.85,1.85,0,0,0,0,1.65l17.59,37.77Z"/></g></g></svg>