<svg viewBox="0 0 511.22 168.87" xmlns="http://www.w3.org/2000/svg"><g fill="#f9543e"><path d="m210.5 76.3h-6.45a1 1 0 0 0 -1 1v11.76a1 1 0 0 1 -1 1h-12.66a1 1 0 0 1 -1-1v-49.8a1 1 0 0 1 1-1h22.68a29.43 29.43 0 0 1 12.21 2.33 18.07 18.07 0 0 1 8 6.66 18.32 18.32 0 0 1 2.81 10.18 18 18 0 0 1 -2.63 9.81 17.44 17.44 0 0 1 -6.5 6 1 1 0 0 0 -.37 1.46l9.41 13.79a1 1 0 0 1 -.83 1.58h-13.17a1 1 0 0 1 -.84-.44l-8.8-12.89a1 1 0 0 0 -.86-.44zm7.5-24.51q-2.3-2-6.81-2h-7.13a1 1 0 0 0 -1 1v13.21a1 1 0 0 0 1 1h7.13q4.51 0 6.81-2a7 7 0 0 0 2.3-5.59 7.08 7.08 0 0 0 -2.3-5.62zm68.06 27.96v9.31a1 1 0 0 1 -1 1h-39.59a1 1 0 0 1 -1-1v-49.8a1 1 0 0 1 1-1h38.62a1 1 0 0 1 1 1v9.3a1 1 0 0 1 -1 1h-24.09a1 1 0 0 0 -1 1v6.74a1 1 0 0 0 1 1h21a1 1 0 0 1 1 1v8.94a1 1 0 0 1 -1 1h-21a1 1 0 0 0 -1 1v7.45a1 1 0 0 0 1 1h25.07a1 1 0 0 1 .99 1.06zm43.3.25h-20.55a1 1 0 0 0 -.94.63l-3.56 8.81a1 1 0 0 1 -.94.63h-12.72a1 1 0 0 1 -.92-1.42l22-49.8a1 1 0 0 1 .92-.6h13.13a1 1 0 0 1 .92.6l22.05 49.8a1 1 0 0 1 -.92 1.42h-13a1 1 0 0 1 -.93-.63l-3.56-8.81a1 1 0 0 0 -.98-.63zm-4.17-12.19-5.19-12.87a1 1 0 0 0 -1.87 0l-5.13 12.87a1 1 0 0 0 .93 1.38h10.34a1 1 0 0 0 .92-1.38zm33 21.74-3.44-.9a1.06 1.06 0 0 1 -.69-.63l-3.5-9.47a1 1 0 0 1 1.22-1.32 92.9 92.9 0 0 0 9.65 2.13 53.83 53.83 0 0 0 9 .67c5.63 0 8.51-1.73 8.51-4.55a3.49 3.49 0 0 0 -2.4-3.29 44.79 44.79 0 0 0 -7.74-2.26 74.06 74.06 0 0 1 -9.77-2.7 16.37 16.37 0 0 1 -6.74-4.63 12.51 12.51 0 0 1 -2.83-8.6 14.89 14.89 0 0 1 2.59-8.56 17.37 17.37 0 0 1 7.74-6 31.82 31.82 0 0 1 12.62-2.22 44.25 44.25 0 0 1 10.07 1.15 31.36 31.36 0 0 1 7.95 2.92 1 1 0 0 1 .44 1.28l-3.75 9a1 1 0 0 1 -1.4.5 29.47 29.47 0 0 0 -13.38-3.49q-4.38 0-6.37 1.3a3.88 3.88 0 0 0 -2 3.36 3.33 3.33 0 0 0 2.37 3.11 42 42 0 0 0 7.66 2.18 71.85 71.85 0 0 1 9.81 2.7 17 17 0 0 1 6.74 4.59q2.85 3.15 2.85 8.55a14.54 14.54 0 0 1 -2.59 8.44 17.72 17.72 0 0 1 -7.77 6 31.56 31.56 0 0 1 -12.59 2.26 47.83 47.83 0 0 1 -12.26-1.52zm52.81-1.92a26 26 0 0 1 -14-23.47 25.93 25.93 0 0 1 14-23.47 33.08 33.08 0 0 1 29.54 0 26.5 26.5 0 0 1 0 46.94 33.08 33.08 0 0 1 -29.54 0zm21.87-10.52a13.26 13.26 0 0 0 5-5.22 17.1 17.1 0 0 0 0-15.47 13.4 13.4 0 0 0 -5-5.22 14.57 14.57 0 0 0 -14.21 0 13.37 13.37 0 0 0 -5 5.22 17 17 0 0 0 0 15.47 13.24 13.24 0 0 0 5 5.22 14.57 14.57 0 0 0 14.21 0zm78.35-37.85v49.8a1 1 0 0 1 -1 1h-10.59a1 1 0 0 1 -.78-.37l-20.78-25.08a1 1 0 0 0 -1.79.65v23.8a1 1 0 0 1 -1 1h-12.36a1 1 0 0 1 -1-1v-49.8a1 1 0 0 1 1-1h10.59a1 1 0 0 1 .77.36l20.79 25.08a1 1 0 0 0 1.79-.64v-23.8a1 1 0 0 1 1-1h12.34a1 1 0 0 1 1.02 1zm-294.5 91.5-12.1-27.32-.06-.15h-7.94l-.07.15-12.06 27.32-.15.36h8.43l.07-.16 1.83-4.53a1 1 0 0 1 .92-.62h9.88a1 1 0 0 1 .92.62l1.83 4.53.06.16h8.6zm-15.5-17.25 1.9 4.73a1 1 0 0 1 -.93 1.37h-3.33a1 1 0 0 1 -.93-1.37l1.9-4.73a.75.75 0 0 1 1.39 0zm41.85 9.08a7.93 7.93 0 0 1 -1.41 4.59 9.61 9.61 0 0 1 -4.2 3.27 17 17 0 0 1 -6.74 1.21 25.57 25.57 0 0 1 -6.5-.83 28 28 0 0 1 -5-2.17.4.4 0 0 1 -.17-.51l2.42-5.42a.38.38 0 0 1 .53-.19 29.7 29.7 0 0 0 4.08 1.88 16.18 16.18 0 0 0 4.69.73c2.79 0 4.2-.66 4.2-2a1.6 1.6 0 0 0 -1.12-1.51 23 23 0 0 0 -4-1.18 39.1 39.1 0 0 1 -5.19-1.43 9 9 0 0 1 -3.65-2.51 6.84 6.84 0 0 1 -1.55-4.69 8.15 8.15 0 0 1 1.41-4.65 9.41 9.41 0 0 1 4.19-3.27 17.1 17.1 0 0 1 6.75-1.19 23.65 23.65 0 0 1 5.37.61 28.85 28.85 0 0 1 4.51 1.74.42.42 0 0 1 .2.53l-2.25 5.42a.4.4 0 0 1 -.56.21c-1.11-.57-4.45-2.15-7.3-2a7 7 0 0 0 -3.23.64 1.8 1.8 0 0 0 -.94 1.57 1.53 1.53 0 0 0 1.1 1.41 22.78 22.78 0 0 0 4 1.11 39 39 0 0 1 5.2 1.44 9.17 9.17 0 0 1 3.65 2.48 6.75 6.75 0 0 1 1.51 4.71zm27 0a7.93 7.93 0 0 1 -1.41 4.59 9.61 9.61 0 0 1 -4.2 3.27 17 17 0 0 1 -6.74 1.21 25.57 25.57 0 0 1 -6.5-.83 28 28 0 0 1 -5-2.17.4.4 0 0 1 -.17-.51l2.42-5.42a.38.38 0 0 1 .53-.19 29.7 29.7 0 0 0 4.08 1.88 16.18 16.18 0 0 0 4.69.73c2.79 0 4.2-.66 4.2-2a1.6 1.6 0 0 0 -1.12-1.51 23 23 0 0 0 -4-1.18 39.1 39.1 0 0 1 -5.19-1.43 9 9 0 0 1 -3.65-2.51 6.84 6.84 0 0 1 -1.55-4.69 8.15 8.15 0 0 1 1.41-4.65 9.41 9.41 0 0 1 4.19-3.27 17.1 17.1 0 0 1 6.75-1.19 23.65 23.65 0 0 1 5.37.61 28.85 28.85 0 0 1 4.51 1.74.42.42 0 0 1 .2.53l-2.25 5.42a.4.4 0 0 1 -.56.21c-1.11-.57-4.45-2.15-7.3-2a7 7 0 0 0 -3.23.64 1.8 1.8 0 0 0 -.94 1.57 1.53 1.53 0 0 0 1.1 1.41 22.78 22.78 0 0 0 4 1.11 39 39 0 0 1 5.2 1.44 9.17 9.17 0 0 1 3.65 2.48 6.75 6.75 0 0 1 1.51 4.71zm32.38-12.82a14.15 14.15 0 0 0 -5.52-5.16 17.73 17.73 0 0 0 -15.81 0 14.23 14.23 0 0 0 0 25.19 17.73 17.73 0 0 0 15.81 0 14.44 14.44 0 0 0 5.52-20zm-13.42 15a7.13 7.13 0 0 1 -3.62-.94 6.76 6.76 0 0 1 -2.56-2.66 8.73 8.73 0 0 1 0-7.92 6.73 6.73 0 0 1 2.56-2.65 7.44 7.44 0 0 1 7.24 0 6.8 6.8 0 0 1 2.56 2.65 8.73 8.73 0 0 1 0 7.92 6.83 6.83 0 0 1 -2.56 2.66 7.16 7.16 0 0 1 -3.65.93zm46.43 1.3.17.16-.14.19a13.34 13.34 0 0 1 -5.09 3.89 16.83 16.83 0 0 1 -6.86 1.35 16.57 16.57 0 0 1 -7.83-1.84 14 14 0 0 1 -5.46-5.15 15 15 0 0 1 0-14.93 14 14 0 0 1 5.46-5.15 16.57 16.57 0 0 1 7.83-1.84 17 17 0 0 1 6.86 1.34 13.36 13.36 0 0 1 5.09 3.9l.14.19-.17.15-4.92 4.45-.19.18-.17-.2a7.86 7.86 0 0 0 -6.25-3.11 7.72 7.72 0 0 0 -3.84.94 6.61 6.61 0 0 0 -2.59 2.65 8.9 8.9 0 0 0 0 7.92 6.57 6.57 0 0 0 2.59 2.66 8 8 0 0 0 10.09-2.17l.17-.2.19.17z"/><rect height="27.83" rx="1" width="8.23" x="340.01" y="103.29"/><path d="m384.06 130.76-12.06-27.32-.06-.15h-7.94l-.06.15-12.07 27.32-.15.36h8.44l.06-.16 1.83-4.53a1 1 0 0 1 .92-.62h9.88a1 1 0 0 1 .92.62l1.83 4.53.07.16h8.59zm-18.78-12.52 1.89-4.73a.76.76 0 0 1 1.4 0l1.89 4.73a1 1 0 0 1 -.93 1.37h-3.32a1 1 0 0 1 -.93-1.37zm41.72-13.95v4.88a.76.76 0 0 1 -.75.75h-6.85a.75.75 0 0 0 -.75.75v19.45a1 1 0 0 1 -1 1h-6.23a1 1 0 0 1 -1-1v-19.45a.75.75 0 0 0 -.75-.75h-6.89a.76.76 0 0 1 -.75-.75v-4.88a1 1 0 0 1 1-1h23a1 1 0 0 1 .97 1z"/><rect height="27.83" rx="1" width="8.23" x="410.91" y="103.29"/><path d="m453.35 109.77a14.15 14.15 0 0 0 -5.52-5.16 17.73 17.73 0 0 0 -15.81 0 14.15 14.15 0 0 0 -5.52 5.16 14.23 14.23 0 0 0 5.52 20 17.73 17.73 0 0 0 15.81 0 14.44 14.44 0 0 0 5.52-20zm-13.43 15a7.16 7.16 0 0 1 -3.62-.94 6.9 6.9 0 0 1 -2.56-2.66 8.81 8.81 0 0 1 0-7.92 6.8 6.8 0 0 1 2.56-2.65 7.44 7.44 0 0 1 7.24 0 6.73 6.73 0 0 1 2.56 2.65 8.73 8.73 0 0 1 0 7.92 6.76 6.76 0 0 1 -2.56 2.66 7.13 7.13 0 0 1 -3.62.93zm47.22-20.48v25.83a1 1 0 0 1 -1 1h-5.73l-.07-.1-9.85-11.89a1 1 0 0 0 -1.77.64v10.35a1 1 0 0 1 -1 1h-6.07a1 1 0 0 1 -1-1v-25.83a1 1 0 0 1 1-1h5.73l.07.09 10.29 12.43a.75.75 0 0 0 1.33-.48v-11a1 1 0 0 1 1-1h6.07a1 1 0 0 1 1 .96zm-425.28-62.06a1.31 1.31 0 0 1 .28.09 1.52 1.52 0 0 0 -.28-.09zm-.63 0a1.58 1.58 0 0 0 -.36.14 1.42 1.42 0 0 1 .34-.11zm0 0a2.21 2.21 0 0 1 .35 0 1.45 1.45 0 0 0 -.35.02zm.36 0h.24z"/><path d="m147.63 122.11-18.18-38.85a2.13 2.13 0 0 1 0-1.86l18-34.52a4.51 4.51 0 0 0 -1.76-6l-69.69-40.27a4.53 4.53 0 0 0 -4.54 0l-69.19 39.94a4.56 4.56 0 0 0 -2.27 3.93v79.89a4.57 4.57 0 0 0 2.28 3.95l69.19 40a4.64 4.64 0 0 0 2.27.6 4.7 4.7 0 0 0 2.27-.6l69.77-40.32a4.6 4.6 0 0 0 1.85-5.89zm-73.89-108.24 53.26 30.73-53.95 30.75-24.75-14.21 20.82-12a1.83 1.83 0 0 0 .91-1.6 1.8 1.8 0 0 0 -.91-1.54l-6.62-3.94a1.68 1.68 0 0 0 -.91-.25 1.93 1.93 0 0 0 -.94.24l-22.65 13.03-17-10.33zm-60.31 41 47 27.7-47.79 28zm4 67.57 21.36-12.6 18.21 35.46zm58.67 31.18-26.45-50.23 22.35-13.39.22-.1 55.07-31-12 22.51a1.85 1.85 0 0 0 0 1.65l17.59 37.77z"/></g></svg>