<svg height="231" viewBox="0 0 498 231" width="498" xmlns="http://www.w3.org/2000/svg"><g fill="none" fill-rule="evenodd" transform="translate(0 1)"><path d="m268.35 229.407v-228.956h212.165s16.79 0 16.79 16.79v195.377s0 16.789-16.79 16.789z" fill="#00a3da"/><path d="m227.691 205.44-.047-181.421c0-12.532-10.116-22.691-22.634-22.691h-181.455c-12.518 0-22.65 10.159-22.65 22.691l-.015 181.421c0 12.53 10.163 22.689 22.68 22.689h181.409c12.517 0 22.712-10.159 22.712-22.689zm-105.187-40.443h26.293v6.952h-18.5v9.361h15.753v6.953h-15.753v9.698h18.5v6.951h-26.293zm-34.484 39.915h7.792v-39.915h-7.792zm-67.846-39.468h8.129l6.166 25.17 7.288-25.17h5.83l7.288 25.17 6.222-25.17h8.129l-10.707 39.914h-6.503l-7.345-24.218-7.343 24.218h-6.503zm28.802-29.601h24.217v-80.472h-24.217zm-30.649-87.515h84.702v-24.217h-84.702zm137.437 88.157-1.282-.108c-22.702-2.371-40.257-21.553-40.257-44.883v-67.383h24.543l-.039 66.785c0 9.767 6.792 18.551 15.904 20.863.401.098.713.16 1.123.233zm48.748-45.238c.024 23.331-17.693 42.734-40.399 45.131l-.996.104-.005-24.526c.369-.067.642-.111 1.001-.197 9.116-2.312 15.908-11.096 15.908-20.863l-.209-66.785h24.700024zm.11 113.665h-6.952l-15.809-24.498v24.498h-7.792v-39.915h6.951l15.809 24.443v-24.443h7.793z" fill="#006095"/><path d="m324.224 110.369c1.293.891 2.238 1.824 2.832 2.799l5.028-4.9c-.764-1.147-1.581-2.121-2.451-2.929-.87-.807-1.813-1.465-2.832-1.974-1.018-.509-2.132-.87-3.341-1.083-1.209-.212-2.578-.319-4.105-.319-2.079 0-3.988.309-5.728.924-1.74.616-3.247 1.496-4.52 2.643-1.274 1.146-2.261 2.538-2.961 4.172-.701 1.634-1.05 3.471-1.05 5.509v18.088c0 4.373 1.305 7.675 3.915 9.904 2.61 2.23 6.08 3.344 10.409 3.344 2.545 0 4.814-.436 6.808-1.305 1.994-.871 3.882-2.241 5.665-4.109l-4.646-5.537c-.637.595-1.21 1.136-1.718 1.623-.51.488-1.05.901-1.624 1.241-.573.339-1.219.606-1.94.796-.722.191-1.57.285-2.545.285-4.286 0-6.429-2.08-6.429-6.241v-18.09c0-1.995.562-3.534 1.687-4.618 1.124-1.082 2.683-1.624 4.677-1.624 1.952.043 3.575.51 4.869 1.401zm21.019 4.089c-1.037.256-2.064.585-3.08.989-1.017.405-1.99.873-2.921 1.406-.931.532-1.757 1.076-2.476 1.63l2.73 5.481c.423-.34.963-.689 1.62-1.05.656-.36 1.354-.7 2.095-1.017.74-.319 1.482-.583 2.223-.797.74-.211 1.385-.318 1.936-.318 1.482 0 2.509.276 3.08.827.571.552.857 1.571.857 3.055v1.655l-15.176 3.181v8.082c0 3.055.697 5.293 2.092 6.714 1.394 1.421 3.613 2.132 6.655 2.132 1.479 0 2.862-.476 4.151-1.426 1.288-.95 2.376-2.079 3.264-3.389l.698 4.281h5.936v-21.256c0-3.691-.868-6.374-2.603-8.051-1.736-1.675-4.445-2.513-8.128-2.513-.931 0-1.916.128-2.953.384zm5.911 21.498c0 1.146-.414 2.079-1.241 2.801-.827.721-1.793 1.081-2.896 1.081-1.061 0-1.825-.147-2.291-.445-.467-.297-.7-.996-.7-2.101v-4.009l7.128-1.655zm24.464-20.907c-.997.53-1.92 1.518-2.768 2.96l-.89-3.282h-5.699v31.167h7.672v-19.735c0-1.655.35-2.885 1.05-3.693.699-.806 1.622-1.209 2.768-1.209.976 0 2.057.297 3.246.89l1.336-7.064c-.467-.256-.913-.458-1.336-.608-.425-.148-1.125-.223-2.1-.223-1.189 0-2.281.266-3.279.797zm19.902 23.475c-1.081-.68-1.622-1.804-1.622-3.375v-1.656l15.719-2.801v-5.731c0-1.655-.277-3.162-.828-4.519-.552-1.359-1.326-2.505-2.322-3.439-.998-.934-2.196-1.656-3.596-2.165s-2.927-.764-4.582-.764c-3.687 0-6.617.902-8.79 2.706-2.173 1.805-3.259 4.51-3.259 8.119v10.251c0 4.117 1.107 7.046 3.323 8.786 2.214 1.741 5.377 2.611 9.489 2.611 2.376 0 4.423-.457 6.142-1.369 1.718-.913 3.404-2.261 5.059-4.045l-4.073-5.027c-1.103 1.103-2.153 1.951-3.15 2.545s-2.174.89-3.531.89c-1.571 0-2.897-.339-3.979-1.017zm5.505-16.394c.551.7.828 1.665.828 2.895v1.846l-7.955 1.399v-3.436c0-1.273.402-2.216 1.208-2.832.807-.615 1.889-.923 3.247-.923 1.23 0 2.12.35 2.672 1.051zm24.227 16.394c-1.081-.68-1.622-1.804-1.622-3.375v-1.656l15.719-2.801v-5.731c0-1.655-.277-3.162-.828-4.519-.551-1.359-1.326-2.505-2.322-3.439-.997-.934-2.196-1.656-3.596-2.165s-2.927-.764-4.582-.764c-3.687 0-6.617.902-8.79 2.706-2.173 1.805-3.259 4.51-3.259 8.119v10.251c0 4.117 1.107 7.046 3.322 8.786 2.215 1.741 5.379 2.611 9.491 2.611 2.375 0 4.422-.457 6.141-1.369 1.718-.913 3.404-2.261 5.059-4.045l-4.073-5.027c-1.103 1.103-2.153 1.951-3.15 2.545s-2.174.89-3.531.89c-1.571 0-2.897-.339-3.979-1.017zm5.506-16.394c.551.7.827 1.665.827 2.895v1.846l-7.955 1.399v-3.436c0-1.273.403-2.216 1.209-2.832.806-.615 1.888-.923 3.246-.923 1.23 0 2.121.35 2.673 1.051zm25.847-7.081c-.997.53-1.92 1.518-2.768 2.96l-.89-3.282h-5.7v31.167h7.673v-19.735c0-1.655.349-2.885 1.05-3.693.699-.806 1.622-1.209 2.768-1.209.975 0 2.057.297 3.245.89l1.337-7.064c-.468-.256-.913-.458-1.337-.608-.425-.148-1.124-.223-2.1-.223-1.188 0-2.281.266-3.278.797z" fill="#fffffe"/><path d="m324.224 169.573c1.293.892 2.238 1.826 2.832 2.8l5.028-4.901c-.764-1.146-1.581-2.122-2.451-2.929s-1.813-1.465-2.832-1.974c-1.018-.509-2.132-.87-3.341-1.082s-2.578-.32-4.105-.32c-2.079 0-3.988.308-5.728.924s-3.247 1.497-4.52 2.643c-1.274 1.147-2.261 2.539-2.961 4.172-.701 1.635-1.05 3.471-1.05 5.509v18.088c0 4.374 1.305 7.675 3.915 9.904 2.61 2.23 6.08 3.344 10.409 3.344 2.545 0 4.814-.435 6.808-1.305s3.882-2.24 5.665-4.108l-4.646-5.537c-.637.593-1.21 1.134-1.718 1.622-.51.488-1.05.902-1.624 1.241-.573.34-1.219.605-1.94.796-.722.191-1.57.286-2.545.286-4.286 0-6.429-2.081-6.429-6.242v-18.09c0-1.995.562-3.534 1.687-4.617 1.124-1.083 2.683-1.624 4.677-1.624 1.952.042 3.575.51 4.869 1.4m19.776 28.154c-1.081-.679-1.622-1.803-1.622-3.374v-1.656l15.719-2.8v-5.732c0-1.655-.277-3.162-.828-4.52-.552-1.358-1.326-2.504-2.322-3.438-.997-.933-2.196-1.655-3.596-2.165-1.4-.509-2.927-.764-4.582-.764-3.687 0-6.617.903-8.79 2.707s-3.259 4.51-3.259 8.117v10.252c0 4.117 1.107 7.047 3.322 8.787s5.379 2.61 9.49 2.61c2.376 0 4.423-.456 6.142-1.369 1.718-.913 3.404-2.261 5.059-4.044l-4.073-5.029c-1.103 1.104-2.153 1.953-3.15 2.547-.997.593-2.174.89-3.531.89-1.571 0-2.897-.34-3.979-1.019m5.505-16.393c.551.7.828 1.665.828 2.895v1.846l-7.955 1.4v-3.437c0-1.273.402-2.216 1.209-2.832.806-.615 1.888-.923 3.246-.923 1.23 0 2.121.351 2.672 1.051m25.568-7.159c-1.125.637-2.133 1.635-3.024 2.994l-.638-3.238h-7.064v31.167h7.897v-18.699c0-.764.127-1.517.382-2.259.255-.741.605-1.409 1.05-2.004.446-.593.977-1.069 1.593-1.431.616-.36 1.305-.541 2.07-.541 1.443 0 2.409.51 2.897 1.528.488 1.017.733 2.248.733 3.688v19.718h7.896v-21.062c0-3.605-.701-6.309-2.102-8.112-1.402-1.804-3.886-2.705-7.453-2.705-1.7 0-3.111.319-4.237.956m31.049 23.756c-.318-.424-.476-.871-.476-1.338v-17.26h6.046v-5.402h-6.046v-9.202h-7.837v9.202h-4.896v5.402h4.837v18.278c0 3.058.636 5.149 1.91 6.275 1.273 1.125 3.438 1.687 6.495 1.687 1.272 0 2.619-.287 4.04-.86s2.791-1.199 4.106-1.878l-1.528-5.602c-.807.339-1.602.646-2.387.921-.784.276-1.813.414-3.086.414-.467 0-.86-.211-1.178-.637m20.423-.204c-1.081-.679-1.622-1.803-1.622-3.374v-1.656l15.719-2.8v-5.732c0-1.655-.277-3.162-.828-4.52-.552-1.358-1.326-2.504-2.322-3.438-.997-.933-2.196-1.655-3.596-2.165-1.4-.509-2.927-.764-4.582-.764-3.687 0-6.617.903-8.79 2.707s-3.259 4.51-3.259 8.117v10.252c0 4.117 1.107 7.047 3.322 8.787s5.378 2.61 9.49 2.61c2.376 0 4.423-.456 6.142-1.369s3.404-2.261 5.059-4.044l-4.073-5.029c-1.103 1.104-2.153 1.953-3.15 2.547-.997.593-2.174.89-3.531.89-1.571 0-2.897-.34-3.979-1.019m5.505-16.393c.551.7.828 1.665.828 2.895v1.846l-7.955 1.4v-3.437c0-1.273.402-2.216 1.209-2.832.806-.615 1.888-.923 3.246-.923 1.23 0 2.121.351 2.672 1.051m24.437-7.081c-.997.531-1.92 1.517-2.768 2.961l-.891-3.283h-5.699v31.167h7.672v-19.734c0-1.655.35-2.886 1.05-3.693.7-.806 1.623-1.21 2.768-1.21.976 0 2.058.297 3.246.89l1.337-7.064c-.468-.256-.913-.458-1.337-.607-.425-.149-1.124-.224-2.1-.224-1.188 0-2.281.266-3.278.797" fill="#fffffe"/><path d="m268.35 229.407v-228.956h212.165s16.79 0 16.79 16.79v195.377s0 16.789-16.79 16.789z" stroke="#00a3da" stroke-width="1.186"/></g></svg>